<svg width="149" height="49" viewBox="0 0 149 49" fill="none" xmlns="http://www.w3.org/2000/svg">
<g filter="url(#filter0_d_1_2)">
<path d="M12.504 22.64V32H4.536V3.872H7.704C8.472 3.872 9.616 3.84 11.136 3.776C12.656 3.696 13.912 3.656 14.904 3.656C18.36 3.656 20.936 4.416 22.632 5.936C24.344 7.456 25.2 9.784 25.2 12.92C25.2 14.776 24.792 16.424 23.976 17.864C23.176 19.304 22.112 20.448 20.784 21.296C21.504 21.472 22.12 21.88 22.632 22.52C23.16 23.16 23.568 23.92 23.856 24.8C24.144 25.664 24.392 26.544 24.6 27.44C24.824 28.32 25.072 29.192 25.344 30.056C25.632 30.92 25.944 31.568 26.28 32H17.424C17.248 31.776 17.112 31.152 17.016 30.128C16.92 29.088 16.784 27.848 16.608 26.408C16.448 24.952 16.216 23.736 15.912 22.76C15.88 22.76 15.84 22.76 15.792 22.76C15.488 22.76 15.16 22.76 14.808 22.76C14.472 22.744 14.176 22.728 13.92 22.712C13.664 22.696 13.392 22.68 13.104 22.664C12.832 22.648 12.632 22.64 12.504 22.64ZM12.504 18.176H13.272C13.672 18.176 14.008 18.16 14.28 18.128C14.552 18.096 14.848 18.04 15.168 17.96C15.504 17.864 15.776 17.72 15.984 17.528C16.208 17.336 16.416 17.088 16.608 16.784C16.8 16.48 16.944 16.088 17.04 15.608C17.136 15.128 17.184 14.568 17.184 13.928V12.032C17.184 10.64 16.816 9.672 16.08 9.128C15.36 8.568 14.32 8.288 12.96 8.288H12.504V18.176ZM37.9151 40.256C36.2671 40.256 34.7151 40.016 33.2591 39.536C31.8031 39.056 30.7391 38.408 30.0671 37.592L31.3151 35C32.2431 35.528 33.7151 35.792 35.7311 35.792C36.3711 35.792 36.9231 35.72 37.3871 35.576C37.8511 35.432 38.2671 35.176 38.6351 34.808C39.0031 34.456 39.2831 33.952 39.4751 33.296C39.6671 32.64 39.7711 31.832 39.7871 30.872V28.808L39.5471 29.192C39.3871 29.448 39.1391 29.76 38.8031 30.128C38.4831 30.48 38.1151 30.84 37.6991 31.208C37.2831 31.56 36.7711 31.864 36.1631 32.12C35.5711 32.376 34.9631 32.504 34.3391 32.504C31.9551 32.504 30.2751 31.84 29.2991 30.512C28.3231 29.168 27.8351 26.912 27.8351 23.744V15.224L26.9711 14.36V11.6H35.7071V25.256C35.7071 25.992 35.8191 26.536 36.0431 26.888C36.2831 27.224 36.7551 27.392 37.4591 27.392C37.6671 27.392 37.8751 27.36 38.0831 27.296C38.2911 27.216 38.4911 27.112 38.6831 26.984C38.8911 26.856 39.1071 26.696 39.3311 26.504V15.224L38.0111 14.36V11.6H47.1551V29.192C47.1551 32.728 46.4031 35.456 44.8991 37.376C43.3951 39.296 41.0671 40.256 37.9151 40.256ZM66.4202 30.008L66.2042 30.272C66.0602 30.432 65.8042 30.64 65.4362 30.896C65.0842 31.136 64.6522 31.384 64.1402 31.64C63.6442 31.88 62.9722 32.08 62.1242 32.24C61.2922 32.416 60.3962 32.504 59.4362 32.504C56.1882 32.504 53.7002 31.552 51.9722 29.648C50.2602 27.744 49.4042 25.224 49.4042 22.088C49.4042 20.392 49.6682 18.848 50.1962 17.456C50.7242 16.064 51.4442 14.912 52.3562 14C53.2842 13.072 54.3642 12.36 55.5962 11.864C56.8442 11.352 58.1882 11.096 59.6282 11.096C62.4122 11.096 64.5722 11.76 66.1082 13.088C66.4442 13.424 66.6122 13.592 66.6122 13.592L66.2522 19.232L62.8442 19.256L61.4762 15.584C61.3482 15.552 61.1722 15.536 60.9482 15.536C59.4922 15.536 58.4842 16.04 57.9242 17.048C57.3802 18.04 57.1082 19.768 57.1082 22.232C57.1082 23.304 57.1962 24.224 57.3722 24.992C57.5482 25.744 57.7482 26.312 57.9722 26.696C58.1962 27.064 58.4922 27.352 58.8602 27.56C59.2442 27.768 59.5562 27.888 59.7962 27.92C60.0362 27.952 60.3322 27.968 60.6842 27.968C61.4842 27.968 62.3002 27.872 63.1322 27.68C63.9802 27.488 64.6762 27.176 65.2202 26.744L66.4202 30.008ZM76.437 32H68.661V4.856L67.221 3.992V1.76L74.925 0.56H76.485V14.696L76.773 14.336C76.965 14.08 77.245 13.776 77.613 13.424C77.997 13.072 78.421 12.728 78.885 12.392C79.349 12.04 79.901 11.744 80.541 11.504C81.197 11.248 81.837 11.12 82.461 11.12C84.653 11.12 86.197 11.72 87.093 12.92C88.005 14.12 88.461 16.128 88.461 18.944C88.461 19.04 88.461 19.184 88.461 19.376C88.445 19.568 88.437 19.72 88.437 19.832V32H80.517V19.136C80.565 17.632 79.925 16.88 78.597 16.88C78.469 16.88 78.341 16.888 78.213 16.904C78.101 16.92 77.981 16.96 77.853 17.024C77.725 17.088 77.621 17.136 77.541 17.168C77.477 17.2 77.373 17.264 77.229 17.36C77.101 17.456 77.013 17.52 76.965 17.552C76.933 17.584 76.837 17.664 76.677 17.792C76.533 17.92 76.453 17.992 76.437 18.008V32ZM102.203 19.592C102.203 17.56 102.099 16.12 101.891 15.272C101.683 14.424 101.299 14 100.739 14C100.259 14 99.8667 14.088 99.5627 14.264C99.2587 14.424 99.0347 14.688 98.8907 15.056C98.7467 15.408 98.6507 15.776 98.6027 16.16C98.5707 16.528 98.5547 17 98.5547 17.576V19.592H102.203ZM100.283 32.504C98.4907 32.504 96.9307 32.232 95.6027 31.688C94.2907 31.144 93.2507 30.384 92.4827 29.408C91.7307 28.432 91.1787 27.336 90.8267 26.12C90.4747 24.888 90.2987 23.52 90.2987 22.016C90.2987 18.432 91.2107 15.72 93.0347 13.88C94.8587 12.04 97.4107 11.12 100.691 11.12C103.843 11.12 106.099 11.864 107.459 13.352C108.819 14.824 109.499 17.2 109.499 20.48V23.144H98.5307V23.6C98.5307 24.544 98.6267 25.32 98.8187 25.928C99.0267 26.536 99.3227 26.984 99.7067 27.272C100.091 27.56 100.483 27.752 100.883 27.848C101.283 27.944 101.771 27.992 102.347 27.992C102.907 27.992 103.507 27.92 104.147 27.776C104.803 27.632 105.459 27.408 106.115 27.104C106.787 26.8 107.347 26.44 107.795 26.024L109.211 28.448C108.619 29.408 107.747 30.216 106.595 30.872C105.459 31.512 104.363 31.944 103.307 32.168C102.251 32.392 101.243 32.504 100.283 32.504ZM117.715 32.504C115.555 32.504 114.043 31.856 113.179 30.56C112.331 29.264 111.907 27.072 111.907 23.984V15.824H110.251V12.488L113.083 11.6L115.531 6.008H119.755V11.6H123.691V15.824H119.683V24.752C119.683 26.032 119.867 26.88 120.235 27.296C120.603 27.712 121.171 27.92 121.939 27.92C122.275 27.92 122.579 27.88 122.851 27.8C123.123 27.72 123.347 27.608 123.523 27.464V30.728C123.283 30.968 122.971 31.208 122.587 31.448C122.203 31.672 121.563 31.904 120.667 32.144C119.787 32.384 118.803 32.504 117.715 32.504ZM135.649 40.256C134.001 40.256 132.449 40.016 130.993 39.536C129.537 39.056 128.473 38.408 127.801 37.592L129.05 35C129.978 35.528 131.45 35.792 133.466 35.792C134.105 35.792 134.657 35.72 135.121 35.576C135.585 35.432 136.001 35.176 136.37 34.808C136.737 34.456 137.017 33.952 137.209 33.296C137.401 32.64 137.506 31.832 137.522 30.872V28.808L137.281 29.192C137.121 29.448 136.873 29.76 136.537 30.128C136.218 30.48 135.85 30.84 135.434 31.208C135.017 31.56 134.505 31.864 133.898 32.12C133.306 32.376 132.698 32.504 132.073 32.504C129.689 32.504 128.009 31.84 127.033 30.512C126.057 29.168 125.569 26.912 125.569 23.744V15.224L124.705 14.36V11.6H133.441V25.256C133.441 25.992 133.554 26.536 133.778 26.888C134.018 27.224 134.489 27.392 135.193 27.392C135.401 27.392 135.609 27.36 135.817 27.296C136.026 27.216 136.226 27.112 136.417 26.984C136.625 26.856 136.841 26.696 137.066 26.504V15.224L135.746 14.36V11.6H144.89V29.192C144.89 32.728 144.138 35.456 142.633 37.376C141.129 39.296 138.801 40.256 135.649 40.256Z" fill="url(#paint0_linear_1_2)"/>
</g>
<defs>
<filter id="filter0_d_1_2" x="0.535995" y="0.559998" width="148.354" height="47.696" filterUnits="userSpaceOnUse" color-interpolation-filters="sRGB">
<feFlood flood-opacity="0" result="BackgroundImageFix"/>
<feColorMatrix in="SourceAlpha" type="matrix" values="0 0 0 0 0 0 0 0 0 0 0 0 0 0 0 0 0 0 127 0" result="hardAlpha"/>
<feOffset dy="4"/>
<feGaussianBlur stdDeviation="2"/>
<feComposite in2="hardAlpha" operator="out"/>
<feColorMatrix type="matrix" values="0 0 0 0 0 0 0 0 0 0 0 0 0 0 0 0 0 0 0.25 0"/>
<feBlend mode="normal" in2="BackgroundImageFix" result="effect1_dropShadow_1_2"/>
<feBlend mode="normal" in="SourceGraphic" in2="effect1_dropShadow_1_2" result="shape"/>
</filter>
<linearGradient id="paint0_linear_1_2" x1="3" y1="10" x2="147" y2="10" gradientUnits="userSpaceOnUse">
<stop stop-color="#DC6A13"/>
<stop offset="0.245181" stop-color="#BE792A"/>
<stop offset="0.610582" stop-color="#B69238"/>
<stop offset="1" stop-color="#FF9F0E"/>
</linearGradient>
</defs>
</svg>
